@startuml
state RobotStateMachine {
    [*] --> Init
    Init --> Standby : start button
    Standby : on entry / start timer(5000 ms)
    Standby --> Scan : timer 
    Scan : on entry / spin continuously in random direction
    Scan --> Attack : proximity[!none] / \nmove forward at relative speed
    Scan --> Backup : boundary / \nback up
    Attack : proximity[left] / slow left tread
    Attack : proximity[right] / slow right tread
    Attack : proximity[ahead] / move forward at relative speed
    Attack --> Scan : proximity[none]
    Attack --> Backup : boundary / \nback up
    Backup --> Scan : timer 
}
@enduml
